<svg width="136" height="82" viewBox="0 0 136 82" fill="none" xmlns="http://www.w3.org/2000/svg">
<path d="M0.283203 13.216C33.7699 -9.81381 39.3694 3.62024 37.9834 13.216C38.9074 35.0832 38.7596 79.3159 30.776 81.3089C22.7924 83.3018 17.2853 69.2219 15.5296 61.9328C13.774 54.6438 52.6754 30.1008 53.507 29.824C54.3386 29.5472 51.8438 30.433 62.9321 38.4048C76.7924 48.3696 79.0101 45.048 79.0101 45.048L67.6446 34.2528C67.6446 34.2528 78.4557 33.1456 84.8315 45.048C91.2072 56.9504 94.8109 45.3248 97.0286 42.5568C99.2462 39.7888 110.057 29.5472 116.156 40.6192C121.035 49.4768 133.066 33.5147 135.283 29.824" stroke="black"/>
</svg>
