<svg width="64" height="64" viewBox="0 0 64 64" fill="none" xmlns="http://www.w3.org/2000/svg">
<g clip-path="url(#clip0_1084_9789)">
<g clip-path="url(#clip1_1084_9789)">
<path d="M61 0L55.8072 57.8436L32.4651 64.2781L9.18735 57.8527L4 0H61Z" fill="#264DE4"/>
<path d="M51.3615 54.1605L55.7991 4.73047H32.5V59.36L51.3615 54.1605Z" fill="#2965F1"/>
<path d="M15.8921 26.187L16.5317 33.2823H32.5002V26.187H15.8921Z" fill="#EBEBEB"/>
<path d="M32.5001 11.8262H32.4755H14.6069L15.2556 18.9216H32.5001V11.8262Z" fill="#EBEBEB"/>
<path d="M32.4998 51.9971V44.6149L32.4685 44.6232L24.5214 42.4895L24.0133 36.8306H20.1516H16.8501L17.8498 47.9713L32.467 52.0062L32.4998 51.9971Z" fill="#EBEBEB"/>
<path d="M41.262 33.2827L40.4338 42.4849L32.4751 44.6209V52.0027L47.1039 47.9713L47.2112 46.7726L48.888 28.0927L49.0622 26.1874L50.3504 11.8262H32.4751V18.9216H42.5302L41.8809 26.1874H32.4751V33.2827H41.262Z" fill="white"/>
</g>
</g>
<defs>
<clipPath id="clip0_1084_9789">
<rect width="64" height="64" fill="white"/>
</clipPath>
<clipPath id="clip1_1084_9789">
<rect width="64" height="64" fill="white"/>
</clipPath>
</defs>
</svg>
