<svg width="64" height="64" viewBox="0 0 64 64" fill="none" xmlns="http://www.w3.org/2000/svg">
<g clip-path="url(#clip0_323_8946)">
<path d="M64 0H0V64H64V0Z" fill="#F7DF1E"/>
<path d="M44.3353 48.8752C45.6647 50.8485 47.3943 52.299 50.4534 52.299C53.0232 52.299 54.6648 51.1313 54.6648 49.518C54.6648 47.5847 52.9781 46.8999 50.1495 45.7752L48.5991 45.1704C44.1236 43.4371 41.1505 41.2656 41.1505 36.6752C41.1505 32.4466 44.6946 29.2275 50.2334 29.2275C54.1766 29.2275 57.0114 30.4752 59.0543 33.7418L54.2248 36.5609C53.1614 34.8275 52.0143 34.1447 50.2334 34.1447C48.4168 34.1447 47.2655 35.1923 47.2655 36.5609C47.2655 38.2523 48.4178 38.9371 51.0788 39.9847L52.6293 40.5885C57.8988 42.6428 60.874 44.7371 60.874 49.4456C60.874 54.5218 56.4876 57.3028 50.5969 57.3028C44.8371 57.3028 41.1159 54.8075 39.2952 51.5371L44.3353 48.8752ZM22.4264 49.3637C23.4007 50.9352 24.287 52.2637 26.4178 52.2637C28.4555 52.2637 29.7409 51.539 29.7409 48.7209V29.5494H35.9428V48.7971C35.9428 54.6352 32.1776 57.2923 26.6818 57.2923C21.7161 57.2923 18.8404 54.9561 17.3779 52.1423L22.4264 49.3637Z" fill="black"/>
</g>
<defs>
<clipPath id="clip0_323_8946">
<rect width="64" height="64" fill="white"/>
</clipPath>
</defs>
</svg>
