<svg width="64" height="64" viewBox="0 0 64 64" fill="none" xmlns="http://www.w3.org/2000/svg">
<g clip-path="url(#clip0_32_3079)">
<path d="M21.538 43.9998C13.668 33.1275 10 13.7411 10 13.7411L32 2L54 13.7411C54 13.7411 50.8227 33.1276 43.3848 44L21.538 43.9998Z" stroke="#A6A6A6" stroke-width="2" stroke-linecap="round" stroke-dasharray="5 4"/>
<path d="M54.3526 63.9994H9.9248V48.6696C9.9248 46.354 11.802 44.4768 14.1176 44.4768H50.1597C52.4753 44.4768 54.3525 46.354 54.3525 48.6696V63.9994H54.3526Z" fill="#664400"/>
<path d="M54.3527 57.0908H9.9248V64H54.3527V57.0908Z" fill="#56361D"/>
<path d="M13.4863 61.5238C12.9456 61.5238 12.5073 61.0856 12.5073 60.5448V49.9341C12.5073 49.3933 12.9456 48.9551 13.4863 48.9551C14.0271 48.9551 14.4653 49.3933 14.4653 49.9341V60.5448C14.4653 61.0856 14.0269 61.5238 13.4863 61.5238Z" fill="#56361D"/>
<path d="M42.5813 53.3435H22.2001C21.1014 53.3435 20.2026 52.4446 20.2026 51.346V50.9394C20.2026 49.8406 21.1015 48.9419 22.2001 48.9419H42.5814C43.6802 48.9419 44.5789 49.8408 44.5789 50.9394V51.346C44.5789 52.4446 43.6799 53.3435 42.5813 53.3435Z" fill="#FFF5CC"/>
</g>
<defs>
<clipPath id="clip0_32_3079">
<rect width="64" height="64" fill="white"/>
</clipPath>
</defs>
</svg>
