<svg width="64" height="64" viewBox="0 0 64 64" fill="none" xmlns="http://www.w3.org/2000/svg">
<g clip-path="url(#clip0_45_3281)">
<path d="M21.538 43.9998C13.668 33.1275 10 13.7411 10 13.7411L32 2L54 13.7411C54 13.7411 50.8227 33.1276 43.3848 44L21.538 43.9998Z" stroke="#A6A6A6" stroke-width="2" stroke-linecap="round" stroke-dasharray="5 4"/>
<path d="M54.3526 63.9994H9.9248V48.6696C9.9248 46.354 11.802 44.4768 14.1176 44.4768H50.1597C52.4753 44.4768 54.3525 46.354 54.3525 48.6696V63.9994H54.3526Z" fill="#664400"/>
<path d="M54.3527 57.0908H9.9248V64H54.3527V57.0908Z" fill="#56361D"/>
<path d="M13.4863 61.5238C12.9456 61.5238 12.5073 61.0856 12.5073 60.5448V49.9341C12.5073 49.3933 12.9456 48.9551 13.4863 48.9551C14.0271 48.9551 14.4653 49.3933 14.4653 49.9341V60.5448C14.4653 61.0856 14.0269 61.5238 13.4863 61.5238Z" fill="#56361D"/>
<path d="M42.5813 53.3435H22.2001C21.1014 53.3435 20.2026 52.4446 20.2026 51.346V50.9394C20.2026 49.8406 21.1015 48.9419 22.2001 48.9419H42.5814C43.6802 48.9419 44.5789 49.8408 44.5789 50.9394V51.346C44.5789 52.4446 43.6799 53.3435 42.5813 53.3435Z" fill="#FFF5CC"/>
<mask id="mask0_45_3281" style="mask-type:alpha" maskUnits="userSpaceOnUse" x="22" y="12" width="21" height="21">
<rect x="22.0103" y="12.9895" width="20" height="20" fill="#D9D9D9"/>
</mask>
<g mask="url(#mask0_45_3281)">
<mask id="mask1_45_3281" style="mask-type:alpha" maskUnits="userSpaceOnUse" x="22" y="13" width="24" height="24">
<rect x="22" y="13" width="24" height="24" fill="#D9D9D9"/>
</mask>
<g mask="url(#mask1_45_3281)">
<path d="M27.0002 31.3333C26.5418 31.3333 26.1495 31.1701 25.8231 30.8437C25.4967 30.5173 25.3335 30.1249 25.3335 29.6666V21.3333C25.3335 20.8749 25.4967 20.4826 25.8231 20.1562C26.1495 19.8298 26.5418 19.6666 27.0002 19.6666H27.8335V17.9999C27.8335 16.8471 28.2397 15.8645 29.0522 15.052C29.8647 14.2395 30.8474 13.8333 32.0002 13.8333C33.1529 13.8333 34.1356 14.2395 34.9481 15.052C35.7606 15.8645 36.1668 16.8471 36.1668 17.9999V19.6666H37.0002C37.4585 19.6666 37.8509 19.8298 38.1772 20.1562C38.5036 20.4826 38.6668 20.8749 38.6668 21.3333V29.6666C38.6668 30.1249 38.5036 30.5173 38.1772 30.8437C37.8509 31.1701 37.4585 31.3333 37.0002 31.3333H27.0002ZM27.0002 29.6666H37.0002V21.3333H27.0002V29.6666ZM32.0002 27.1666C32.4585 27.1666 32.8509 27.0034 33.1772 26.677C33.5036 26.3506 33.6668 25.9583 33.6668 25.4999C33.6668 25.0416 33.5036 24.6492 33.1772 24.3228C32.8509 23.9964 32.4585 23.8333 32.0002 23.8333C31.5418 23.8333 31.1495 23.9964 30.8231 24.3228C30.4967 24.6492 30.3335 25.0416 30.3335 25.4999C30.3335 25.9583 30.4967 26.3506 30.8231 26.677C31.1495 27.0034 31.5418 27.1666 32.0002 27.1666ZM29.5002 19.6666H34.5002V17.9999C34.5002 17.3055 34.2571 16.7152 33.771 16.2291C33.2849 15.743 32.6946 15.4999 32.0002 15.4999C31.3057 15.4999 30.7154 15.743 30.2293 16.2291C29.7432 16.7152 29.5002 17.3055 29.5002 17.9999V19.6666Z" fill="#A6A6A6"/>
</g>
</g>
</g>
<defs>
<clipPath id="clip0_45_3281">
<rect width="64" height="64" fill="white"/>
</clipPath>
</defs>
</svg>
