<svg width="64" height="64" viewBox="0 0 64 64" fill="none" xmlns="http://www.w3.org/2000/svg">
<path d="M21.0106 44.4769C12.744 32.9634 8.89111 12.4336 8.89111 12.4336L31.9999 0L55.1087 12.4336C55.1087 12.4336 51.7712 32.9636 43.9585 44.4772L21.0106 44.4769Z" fill="#9B5DE5"/>
<g opacity="0.3">
<path d="M45.5723 7.28979L14.3018 31.2726C15.5601 34.5747 17.0457 37.913 18.7653 40.9205L55.1089 12.421L45.5723 7.28979Z" fill="#3B1A66"/>
</g>
<path d="M26.9172 44.9038C26.6922 44.9038 26.4659 44.8267 26.2814 44.6688C22.163 41.1472 18.5941 35.1206 15.674 26.7563C13.5175 20.5789 12.5629 15.4969 12.5234 15.2836C12.4248 14.7521 12.7758 14.2413 13.3073 14.1426C13.8389 14.044 14.3498 14.3948 14.4485 14.9263C14.4862 15.1291 18.3216 35.2864 27.5538 43.1805C27.9647 43.5318 28.0132 44.1499 27.6617 44.5608C27.4682 44.7875 27.1935 44.9038 26.9172 44.9038Z" fill="#E5D1FA"/>
<path opacity="0.3" d="M50.2712 9.83081C48.962 15.7855 46.374 25.7029 42.2805 33.7073C40.8198 36.5638 37.8932 38.3713 34.6849 38.3713L17.3755 38.3712C18.4755 40.5568 19.6863 42.6326 21.0106 44.477L43.9584 44.4771C51.7711 32.9635 55.1085 12.4335 55.1085 12.4335L50.2712 9.83081Z" fill="#6A1620"/>
<path d="M54.3526 63.9994H9.9248V48.6696C9.9248 46.354 11.802 44.4768 14.1176 44.4768H50.1597C52.4753 44.4768 54.3525 46.354 54.3525 48.6696V63.9994H54.3526Z" fill="#664400"/>
<path d="M54.3527 57.0908H9.9248V64H54.3527V57.0908Z" fill="#56361D"/>
<path d="M13.4863 61.5238C12.9456 61.5238 12.5073 61.0856 12.5073 60.5448V49.9341C12.5073 49.3933 12.9456 48.9551 13.4863 48.9551C14.0271 48.9551 14.4653 49.3933 14.4653 49.9341V60.5448C14.4653 61.0856 14.0269 61.5238 13.4863 61.5238Z" fill="#56361D"/>
<path d="M42.5808 53.3435H22.1996C21.1009 53.3435 20.2021 52.4446 20.2021 51.346V50.9394C20.2021 49.8406 21.101 48.9419 22.1996 48.9419H42.5809C43.6797 48.9419 44.5784 49.8408 44.5784 50.9394V51.346C44.5784 52.4446 43.6794 53.3435 42.5808 53.3435Z" fill="#FFF5CC"/>
</svg>
